<!DOCTYPE svg PUBLIC "-//W3C//DTD SVG 1.1//EN" "http://www.w3.org/Graphics/SVG/1.1/DTD/svg11.dtd">
<!-- Uploaded to: SVG Repo, www.svgrepo.com, Transformed by: SVG Repo Mixer Tools -->
<svg fill="#ffffff" height="64px" width="64px" version="1.1" id="Capa_1" xmlns="http://www.w3.org/2000/svg" xmlns:xlink="http://www.w3.org/1999/xlink" viewBox="0 0 275.072 275.072" xml:space="preserve" stroke="#ffffff">
<g id="SVGRepo_bgCarrier" stroke-width="0"/>
<g id="SVGRepo_tracerCarrier" stroke-linecap="round" stroke-linejoin="round"/>
<g id="SVGRepo_iconCarrier"> <g> <path d="M203.69,0H71.379c-9.884,0-17.926,8.05-17.926,17.945v239.192c0,9.89,8.041,17.935,17.926,17.935h132.31 c9.886,0,17.929-8.045,17.929-17.935V17.945C221.619,8.05,213.576,0,203.69,0z M68.454,61.934l138.165,0.003v133.423H68.454V61.934 z M71.379,15h132.31c1.615,0,2.929,1.321,2.929,2.945v28.991L68.454,46.934V17.945C68.454,16.321,69.766,15,71.379,15z M203.69,260.072H71.379c-1.586,0-2.926-1.344-2.926-2.935v-46.778h138.165v46.778C206.619,258.755,205.305,260.072,203.69,260.072 z"/> <path d="M137.536,217.458c-9.784,0-17.744,7.966-17.744,17.758c0,9.778,7.96,17.733,17.744,17.733 c9.785,0,17.745-7.955,17.745-17.733C155.281,225.424,147.32,217.458,137.536,217.458z M137.536,242.949 c-4.299,0-7.744-3.457-7.744-7.733c0-4.28,3.445-7.758,7.744-7.758c4.29,0,7.745,3.479,7.745,7.758 C145.281,239.492,141.826,242.949,137.536,242.949z"/> <path d="M122.45,35.967h30.174c2.761,0,5-2.239,5-5c0-2.761-2.239-5-5-5H122.45c-2.761,0-5,2.239-5,5 C117.45,33.728,119.688,35.967,122.45,35.967z"/> </g> </g>
</svg>